<svg width="20" height="19" viewBox="0 0 20 19" fill="none" xmlns="http://www.w3.org/2000/svg">
<path fill-rule="evenodd" clip-rule="evenodd" d="M3.16663 9.5C3.16663 8.94772 3.61434 8.5 4.16663 8.5H15.8333C16.3856 8.5 16.8333 8.94772 16.8333 9.5C16.8333 10.0523 16.3856 10.5 15.8333 10.5H4.16663C3.61434 10.5 3.16663 10.0523 3.16663 9.5Z" fill="#072D4B"/>
<path fill-rule="evenodd" clip-rule="evenodd" d="M9.275 3.26958C9.65539 2.86917 10.2883 2.85294 10.6888 3.23333L16.5221 8.775C16.7208 8.96379 16.8333 9.22589 16.8333 9.5C16.8333 9.77411 16.7208 10.0362 16.5221 10.225L10.6888 15.7667C10.2883 16.147 9.65539 16.1308 9.275 15.7304C8.89462 15.33 8.91085 14.6971 9.31125 14.3167L14.3814 9.5L9.31125 4.68333C8.91085 4.30294 8.89462 3.66999 9.275 3.26958Z" fill="#072D4B"/>
</svg>
