<svg width="26" height="26" viewBox="0 0 26 26" fill="none" xmlns="http://www.w3.org/2000/svg">
<g clip-path="url(#clip0_29_17)" filter="url(#filter0_d_29_17)">
<path fill-rule="evenodd" clip-rule="evenodd" d="M13 2.5C9.41015 2.5 6.5 5.41015 6.5 9C6.5 12.5899 9.41015 15.5 13 15.5C16.5899 15.5 19.5 12.5899 19.5 9C19.5 5.41015 16.5899 2.5 13 2.5ZM4.5 9C4.5 4.30558 8.30558 0.5 13 0.5C17.6944 0.5 21.5 4.30558 21.5 9C21.5 13.6944 17.6944 17.5 13 17.5C8.30558 17.5 4.5 13.6944 4.5 9Z" fill="#072D4B"/>
<path fill-rule="evenodd" clip-rule="evenodd" d="M16.5 9C16.5 8.44772 16.9477 8 17.5 8H20.5C21.0523 8 21.5 8.44772 21.5 9C21.5 9.55228 21.0523 10 20.5 10H17.5C16.9477 10 16.5 9.55228 16.5 9Z" fill="#072D4B"/>
<path fill-rule="evenodd" clip-rule="evenodd" d="M4.5 9C4.5 8.44772 4.94772 8 5.5 8H8.5C9.05228 8 9.5 8.44772 9.5 9C9.5 9.55228 9.05228 10 8.5 10H5.5C4.94772 10 4.5 9.55228 4.5 9Z" fill="#072D4B"/>
<path fill-rule="evenodd" clip-rule="evenodd" d="M13 0.5C13.5523 0.5 14 0.947715 14 1.5V4.5C14 5.05228 13.5523 5.5 13 5.5C12.4477 5.5 12 5.05228 12 4.5V1.5C12 0.947715 12.4477 0.5 13 0.5Z" fill="#072D4B"/>
<g filter="url(#filter1_d_29_17)">
<path fill-rule="evenodd" clip-rule="evenodd" d="M13 12.5C13.5523 12.5 14 12.9477 14 13.5V16.5C14 17.0523 13.5523 17.5 13 17.5C12.4477 17.5 12 17.0523 12 16.5V13.5C12 12.9477 12.4477 12.5 13 12.5Z" fill="#072D4B"/>
</g>
</g>
<defs>
<filter id="filter0_d_29_17" x="0" y="0" width="26" height="26" filterUnits="userSpaceOnUse" color-interpolation-filters="sRGB">
<feFlood flood-opacity="0" result="BackgroundImageFix"/>
<feColorMatrix in="SourceAlpha" type="matrix" values="0 0 0 0 0 0 0 0 0 0 0 0 0 0 0 0 0 0 127 0" result="hardAlpha"/>
<feOffset dy="4"/>
<feGaussianBlur stdDeviation="2"/>
<feComposite in2="hardAlpha" operator="out"/>
<feColorMatrix type="matrix" values="0 0 0 0 0 0 0 0 0 0 0 0 0 0 0 0 0 0 0.25 0"/>
<feBlend mode="normal" in2="BackgroundImageFix" result="effect1_dropShadow_29_17"/>
<feBlend mode="normal" in="SourceGraphic" in2="effect1_dropShadow_29_17" result="shape"/>
</filter>
<filter id="filter1_d_29_17" x="8" y="12.5" width="10" height="13" filterUnits="userSpaceOnUse" color-interpolation-filters="sRGB">
<feFlood flood-opacity="0" result="BackgroundImageFix"/>
<feColorMatrix in="SourceAlpha" type="matrix" values="0 0 0 0 0 0 0 0 0 0 0 0 0 0 0 0 0 0 127 0" result="hardAlpha"/>
<feOffset dy="4"/>
<feGaussianBlur stdDeviation="2"/>
<feComposite in2="hardAlpha" operator="out"/>
<feColorMatrix type="matrix" values="0 0 0 0 0 0 0 0 0 0 0 0 0 0 0 0 0 0 0.25 0"/>
<feBlend mode="normal" in2="BackgroundImageFix" result="effect1_dropShadow_29_17"/>
<feBlend mode="normal" in="SourceGraphic" in2="effect1_dropShadow_29_17" result="shape"/>
</filter>
<clipPath id="clip0_29_17">
<rect width="18" height="18" fill="white" transform="translate(4)"/>
</clipPath>
</defs>
</svg>
