<svg width="24" height="24" viewBox="0 0 24 24" fill="none" xmlns="http://www.w3.org/2000/svg">
<path fill-rule="evenodd" clip-rule="evenodd" d="M12.4974 3.99999C11.335 3.99696 10.1884 4.26854 9.15085 4.7926L9.14706 4.79451L9.14706 4.7945C7.9014 5.41706 6.85367 6.37413 6.12122 7.55852C5.38877 8.7429 5.00054 10.1078 5 11.5004L4.99999 11.5026C4.99696 12.665 5.26854 13.8116 5.79259 14.8491C5.91281 15.0871 5.933 15.3633 5.84868 15.6162L4.58114 19.4189L8.38377 18.1513C8.63671 18.067 8.91286 18.0872 9.15085 18.2074C10.1884 18.7315 11.335 19.003 12.4974 19L12.4996 19C13.8922 18.9995 15.2571 18.6112 16.4415 17.8788C17.6259 17.1463 18.5829 16.0986 19.2055 14.8529L19.2074 14.8491C19.7315 13.8116 20.003 12.665 20 11.5026L20 11.5V11.0284C19.8926 9.19975 19.1178 7.4737 17.822 6.17796C16.5263 4.88223 14.8002 4.10743 12.9716 4H12.5L12.4974 3.99999ZM12.5013 2C11.0251 1.99636 9.56884 2.34119 8.25104 3.00644C6.67404 3.79504 5.34761 5.00696 4.42021 6.50658C3.49263 8.00649 3.00088 9.73499 3 11.4985C2.99668 12.8332 3.27822 14.1516 3.82389 15.366L2.05131 20.6838C1.93154 21.0431 2.02506 21.4393 2.29289 21.7071C2.56072 21.9749 2.95689 22.0685 3.31622 21.9487L8.63395 20.1761C9.84844 20.7218 11.1668 21.0033 12.5015 21" fill="#072D4B"/>
</svg>
