<svg width="17" height="16" viewBox="0 0 17 16" fill="none" xmlns="http://www.w3.org/2000/svg">
<g clip-path="url(#clip0_42_93)">
<path fill-rule="evenodd" clip-rule="evenodd" d="M3.10441 3C3.00512 3 2.91308 3.03896 2.8477 3.1033C2.78287 3.16709 2.74945 3.25017 2.74945 3.33333V7.33333C2.74945 8.83099 3.35389 10.2706 4.43513 11.3346C4.97066 11.8616 5.60729 12.2804 6.30908 12.5665C7.01091 12.8526 7.76366 13 8.52423 13C10.0609 13 11.5315 12.3991 12.6133 11.3346C13.6946 10.2706 14.299 8.83099 14.299 7.33333V3.33333C14.299 3.25017 14.2656 3.16709 14.2007 3.1033C14.1354 3.03896 14.0433 3 13.944 3H3.10441ZM3.10441 1H13.944C14.5635 1 15.1607 1.24199 15.6035 1.67775C16.0469 2.11405 16.299 2.70926 16.299 3.33333V7.33333C16.299 9.3719 15.4759 11.3237 14.0161 12.7601C12.5569 14.1961 10.5811 15 8.52423 15C7.50544 15 6.49626 14.8026 5.55418 14.4186C4.61207 14.0346 3.75501 13.4713 3.03234 12.7601C1.57255 11.3237 0.749451 9.3719 0.749451 7.33333V3.33333C0.749451 2.70926 1.00153 2.11405 1.44491 1.67775C1.88774 1.24199 2.48498 1 3.10441 1Z" fill="#0768B5"/>
<path fill-rule="evenodd" clip-rule="evenodd" d="M5.10156 5.96526C5.48893 5.57161 6.12208 5.56651 6.51573 5.95389L8.52424 7.93035L10.5328 5.95389C10.9264 5.56651 11.5596 5.57161 11.9469 5.96526C12.3343 6.35891 12.3292 6.99206 11.9355 7.37943L9.22564 10.0461C8.83645 10.4291 8.21203 10.4291 7.82284 10.0461L5.11293 7.37943C4.71928 6.99206 4.71419 6.35891 5.10156 5.96526Z" fill="#0768B5"/>
</g>
<defs>
<clipPath id="clip0_42_93">
<rect width="16.2595" height="16" fill="white" transform="translate(0.394531)"/>
</clipPath>
</defs>
</svg>
