<svg width="17" height="16" viewBox="0 0 17 16" fill="none" xmlns="http://www.w3.org/2000/svg">
<path fill-rule="evenodd" clip-rule="evenodd" d="M2.80731 7C3.3596 7 3.80731 7.44772 3.80731 8V13.3333C3.80731 13.4165 3.84074 13.4996 3.90557 13.5634C3.97094 13.6277 4.06298 13.6667 4.16227 13.6667H12.292C12.3913 13.6667 12.4833 13.6277 12.5487 13.5634C12.6135 13.4996 12.647 13.4165 12.647 13.3333V8C12.647 7.44772 13.0947 7 13.647 7C14.1992 7 14.647 7.44772 14.647 8V13.3333C14.647 13.9574 14.3949 14.5526 13.9515 14.9889C13.5087 15.4247 12.9114 15.6667 12.292 15.6667H4.16227C3.54284 15.6667 2.9456 15.4247 2.50277 14.9889C2.0594 14.5526 1.80731 13.9574 1.80731 13.3333V8C1.80731 7.44772 2.25503 7 2.80731 7Z" fill="#0768B5"/>
<path fill-rule="evenodd" clip-rule="evenodd" d="M7.52572 0.620542C7.91491 0.23757 8.53934 0.23757 8.92852 0.620542L11.6384 3.28721C12.0321 3.67458 12.0372 4.30772 11.6498 4.70138C11.2624 5.09503 10.6293 5.10012 10.2356 4.71275L8.22712 2.73629L6.21861 4.71275C5.82496 5.10012 5.19181 5.09503 4.80444 4.70138C4.41707 4.30772 4.42216 3.67458 4.81582 3.28721L7.52572 0.620542Z" fill="#0768B5"/>
<path fill-rule="evenodd" clip-rule="evenodd" d="M8.22717 0.333313C8.77946 0.333313 9.22717 0.781028 9.22717 1.33331V9.99998C9.22717 10.5523 8.77946 11 8.22717 11C7.67489 11 7.22717 10.5523 7.22717 9.99998V1.33331C7.22717 0.781028 7.67489 0.333313 8.22717 0.333313Z" fill="#0768B5"/>
</svg>
