<svg width="52" height="52" viewBox="0 0 52 52" fill="none" xmlns="http://www.w3.org/2000/svg">
<path fill-rule="evenodd" clip-rule="evenodd" d="M26 16.1667C20.5692 16.1667 16.1666 20.5692 16.1666 26C16.1666 31.4308 20.5692 35.8333 26 35.8333C31.4308 35.8333 35.8333 31.4308 35.8333 26C35.8333 20.5692 31.4308 16.1667 26 16.1667ZM14.1666 26C14.1666 19.4646 19.4646 14.1667 26 14.1667C32.5353 14.1667 37.8333 19.4646 37.8333 26C37.8333 32.5354 32.5353 37.8333 26 37.8333C19.4646 37.8333 14.1666 32.5354 14.1666 26Z" fill="#FFCF26"/>
<path fill-rule="evenodd" clip-rule="evenodd" d="M26 1.16666C26.5523 1.16666 27 1.61438 27 2.16666V6.5C27 7.05228 26.5523 7.5 26 7.5C25.4477 7.5 25 7.05228 25 6.5V2.16666C25 1.61438 25.4477 1.16666 26 1.16666Z" fill="#FFCF26"/>
<path fill-rule="evenodd" clip-rule="evenodd" d="M26 44.5C26.5523 44.5 27 44.9477 27 45.5V49.8333C27 50.3856 26.5523 50.8333 26 50.8333C25.4477 50.8333 25 50.3856 25 49.8333V45.5C25 44.9477 25.4477 44.5 26 44.5Z" fill="#FFCF26"/>
<path fill-rule="evenodd" clip-rule="evenodd" d="M8.4362 8.43623C8.82673 8.0457 9.45989 8.0457 9.85042 8.43623L12.9271 11.5129C13.3176 11.9034 13.3176 12.5366 12.9271 12.9271C12.5366 13.3176 11.9034 13.3176 11.5129 12.9271L8.4362 9.85044C8.04568 9.45992 8.04568 8.82675 8.4362 8.43623Z" fill="#FFCF26"/>
<path fill-rule="evenodd" clip-rule="evenodd" d="M39.0729 39.0729C39.4634 38.6824 40.0966 38.6824 40.4871 39.0729L43.5638 42.1496C43.9543 42.5401 43.9543 43.1733 43.5638 43.5638C43.1733 43.9543 42.5401 43.9543 42.1496 43.5638L39.0729 40.4871C38.6824 40.0966 38.6824 39.4634 39.0729 39.0729Z" fill="#FFCF26"/>
<path fill-rule="evenodd" clip-rule="evenodd" d="M1.16663 26C1.16663 25.4477 1.61434 25 2.16663 25H6.49996C7.05224 25 7.49996 25.4477 7.49996 26C7.49996 26.5523 7.05224 27 6.49996 27H2.16663C1.61434 27 1.16663 26.5523 1.16663 26Z" fill="#FFCF26"/>
<path fill-rule="evenodd" clip-rule="evenodd" d="M44.5 26C44.5 25.4477 44.9477 25 45.5 25H49.8333C50.3856 25 50.8333 25.4477 50.8333 26C50.8333 26.5523 50.3856 27 49.8333 27H45.5C44.9477 27 44.5 26.5523 44.5 26Z" fill="#FFCF26"/>
<path fill-rule="evenodd" clip-rule="evenodd" d="M12.9271 39.0729C13.3176 39.4634 13.3176 40.0966 12.9271 40.4871L9.85042 43.5638C9.45989 43.9543 8.82673 43.9543 8.4362 43.5638C8.04568 43.1733 8.04568 42.5401 8.4362 42.1496L11.5129 39.0729C11.9034 38.6824 12.5366 38.6824 12.9271 39.0729Z" fill="#FFCF26"/>
<path fill-rule="evenodd" clip-rule="evenodd" d="M43.5638 8.43623C43.9543 8.82675 43.9543 9.45992 43.5638 9.85044L40.4871 12.9271C40.0966 13.3176 39.4634 13.3176 39.0729 12.9271C38.6824 12.5366 38.6824 11.9034 39.0729 11.5129L42.1496 8.43623C42.5401 8.0457 43.1733 8.0457 43.5638 8.43623Z" fill="#FFCF26"/>
</svg>
