<svg width="20" height="20" viewBox="0 0 20 20" fill="none" xmlns="http://www.w3.org/2000/svg">
<path fill-rule="evenodd" clip-rule="evenodd" d="M1.5 5C1.5 4.44772 1.94772 4 2.5 4H17.5C18.0523 4 18.5 4.44772 18.5 5C18.5 5.55228 18.0523 6 17.5 6H2.5C1.94772 6 1.5 5.55228 1.5 5Z" fill="#FF8C8C"/>
<path fill-rule="evenodd" clip-rule="evenodd" d="M8.33342 2.66663C8.1566 2.66663 7.98704 2.73686 7.86201 2.86189C7.73699 2.98691 7.66675 3.15648 7.66675 3.33329V3.99996H12.3334V3.33329C12.3334 3.15648 12.2632 2.98691 12.1382 2.86189C12.0131 2.73686 11.8436 2.66663 11.6667 2.66663H8.33342ZM14.3334 3.99996V3.33329C14.3334 2.62605 14.0525 1.94777 13.5524 1.44767C13.0523 0.947578 12.374 0.666626 11.6667 0.666626H8.33342C7.62617 0.666626 6.94789 0.947578 6.4478 1.44767C5.9477 1.94777 5.66675 2.62605 5.66675 3.33329V3.99996H4.16675C3.61446 3.99996 3.16675 4.44767 3.16675 4.99996V16.6666C3.16675 17.3739 3.4477 18.0521 3.9478 18.5522C4.44789 19.0523 5.12617 19.3333 5.83341 19.3333H14.1667C14.874 19.3333 15.5523 19.0523 16.0524 18.5522C16.5525 18.0521 16.8334 17.3739 16.8334 16.6666V4.99996C16.8334 4.44767 16.3857 3.99996 15.8334 3.99996H14.3334ZM5.16675 5.99996V16.6666C5.16675 16.8434 5.23699 17.013 5.36201 17.138C5.48703 17.2631 5.6566 17.3333 5.83341 17.3333H14.1667C14.3436 17.3333 14.5131 17.2631 14.6382 17.138C14.7632 17.013 14.8334 16.8434 14.8334 16.6666V5.99996H5.16675Z" fill="#FF8C8C"/>
</svg>
